# xmcd CD database file
#
# Track frame offsets:
#	150
#	14923
#	27812
#	42731
#	64160
#	80375
#	95503
#	110747
#	127313
#	144308
#
# Disc length: 2262 seconds
#
# Revision: 0
# Processed by: cddbd v1.5.2PL0 Copyright (c) Steve Scherf et al.
# Submitted via: CDex 1.70beta2
#
DISCID=9308d40a
DTITLE=Brad Johner - Lookin' at You
DYEAR=2009
DGENRE=Country
TTITLE0=The Trouble With Love
TTITLE1=Lookin' at You
TTITLE2=I Want It
TTITLE3=High
TTITLE4=That Wouldn't Be Me
TTITLE5=She's Good to Go
TTITLE6=The Whole Idea
TTITLE7=Saved by Grace
TTITLE8=Take Time
TTITLE9=The Other Side of the Radio
EXTD=YEAR: 2009
EXTT0=
EXTT1=
EXTT2=
EXTT3=
EXTT4=
EXTT5=
EXTT6=
EXTT7=
EXTT8=
EXTT9=
PLAYORDER=
